 <svg  version="1.0" xmlns="http://www.w3.org/2000/svg"  width="597.000000pt" height="327.000000pt" viewBox="0 0 597.000000 327.000000"  preserveAspectRatio="xMidYMid meet">  <g transform="translate(0.000000,327.000000) scale(0.100000,-0.100000)" fill="#28288c" stroke="none"> <path d="M2155 2435 c-16 -9 -38 -25 -47 -36 -17 -20 -18 -84 -18 -1028 l0 -1008 23 -20 c46 -42 55 -43 386 -43 305 0 322 1 355 21 74 44 74 164 0 208 -33 20 -51 21 -258 21 -215 0 -224 1 -256 23 -47 32 -62 82 -58 193 4 102 17 132 71 161 29 16 74 19 429 23 l397 5 22 24 c17 18 24 40 27 80 4 53 2 58 -33 91 l-36 35 -396 3 -395 3 -34 25 c-22 17 -38 40 -44 65 -7 25 -10 181 -8 437 3 446 1 433 78 472 36 18 58 20 263 20 220 0 224 0 251 23 33 28 44 88 27 140 -9 27 -23 41 -55 56 -40 20 -60 21 -352 21 -257 0 -314 -3 -339 -15z"/> <path d="M3062 2429 c-62 -40 -79 -114 -42 -174 11 -18 35 -38 52 -44 18 -6 112 -11 227 -11 222 -1 261 -7 299 -47 26 -27 27 -31 27 -148 0 -111 -2 -122 -24 -152 -36 -48 -77 -53 -476 -53 -201 0 -365 -4 -379 -10 -14 -5 -32 -21 -42 -35 -19 -29 -22 -111 -5 -143 26 -49 49 -51 461 -54 l385 -3 33 -24 c18 -13 38 -34 43 -48 5 -13 9 -206 9 -436 l0 -412 -25 -37 c-36 -54 -66 -59 -297 -51 -174 5 -202 4 -235 -11 -67 -30 -90 -100 -57 -169 31 -64 47 -67 398 -67 345 0 366 3 399 58 16 28 17 95 17 1010 0 602 -4 990 -10 1006 -5 14 -26 36 -47 50 l-38 25 -320 0 c-310 1 -321 0 -353 -20z"/> </g> </svg> 